<?xml version="1.0" standalone="no"?>
<!DOCTYPE svg PUBLIC "-//W3C//DTD SVG 20010904//EN"
 "http://www.w3.org/TR/2001/REC-SVG-20010904/DTD/svg10.dtd">
<svg version="1.0" xmlns="http://www.w3.org/2000/svg"
 width="822.000000pt" height="643.000000pt" viewBox="0 0 822.000000 643.000000"
 preserveAspectRatio="xMidYMid meet">

<g transform="translate(0.000000,643.000000) scale(0.100000,-0.100000)"
fill="#000000" stroke="none">
<path d="M4690 5764 c-234 -112 -402 -178 -565 -221 -86 -23 -122 -27 -250
-27 -82 -1 -180 3 -218 8 -83 11 -136 -8 -169 -62 -19 -31 -20 -42 -13 -125
12 -128 8 -182 -14 -226 -27 -53 -72 -88 -137 -107 -61 -17 -83 -15 -194 23
-101 35 -157 28 -212 -27 -36 -35 -38 -42 -38 -98 0 -47 6 -72 30 -117 60
-115 156 -212 259 -263 66 -32 84 -37 146 -36 121 1 186 50 235 179 17 43 40
91 51 107 46 64 154 87 241 49 24 -10 76 -39 115 -65 40 -26 92 -54 115 -62
53 -20 169 -21 268 -4 235 40 607 188 697 277 65 64 65 90 4 221 -72 157 -101
263 -108 405 -5 98 -10 124 -27 150 -46 67 -108 73 -216 21z"/>
<path d="M4965 4615 c-156 -61 -382 -130 -500 -151 -146 -26 -314 -24 -443 5
-123 27 -162 23 -208 -23 -45 -45 -58 -99 -43 -179 16 -88 -6 -165 -65 -223
-73 -74 -170 -82 -288 -24 -106 51 -206 39 -256 -31 -12 -17 -17 -43 -16 -89
1 -75 36 -154 109 -251 181 -235 469 -240 545 -10 18 56 82 127 126 141 45 15
118 9 164 -14 19 -9 69 -42 110 -73 108 -80 148 -96 259 -101 194 -9 516 63
756 168 94 42 145 95 145 153 0 13 -18 73 -41 133 -55 148 -70 232 -70 393 0
116 -2 139 -19 166 -43 69 -111 72 -265 10z"/>
<path d="M4043 3440 c-47 -28 -65 -72 -74 -177 -8 -109 -36 -168 -100 -210
-84 -55 -177 -48 -279 22 -186 127 -334 41 -291 -170 24 -117 123 -278 206
-335 149 -103 308 -76 391 67 53 89 140 142 212 128 60 -11 92 -33 199 -135
110 -106 153 -130 275 -150 193 -31 643 14 797 81 104 44 119 93 81 265 -27
124 -27 298 1 406 23 94 19 126 -23 173 -42 49 -76 52 -215 21 -449 -99 -730
-98 -980 5 -86 35 -153 38 -200 9z"/>
<path d="M3976 2420 c-60 -19 -95 -74 -116 -182 -24 -121 -109 -198 -218 -198
-69 0 -120 24 -187 86 -187 176 -357 60 -301 -204 46 -217 190 -374 344 -374
80 0 122 21 189 92 70 74 122 103 184 104 66 0 127 -39 186 -120 126 -174 153
-198 262 -235 225 -78 746 -103 869 -42 72 36 77 52 78 256 2 197 16 279 69
395 51 111 22 183 -85 215 -8 2 -96 0 -195 -5 -385 -18 -681 32 -871 149 -110
67 -153 80 -208 63z"/>
<path d="M3705 1312 c-48 -30 -62 -52 -90 -139 -30 -95 -57 -139 -104 -170
-103 -69 -214 -47 -316 65 -60 65 -109 92 -167 92 -96 0 -148 -70 -148 -200 0
-155 61 -312 153 -397 55 -50 130 -83 188 -83 54 0 133 38 179 86 50 51 129
94 175 94 43 0 105 -32 141 -71 17 -19 56 -75 88 -126 88 -142 142 -179 332
-233 163 -46 363 -73 544 -74 139 -1 160 1 202 21 64 29 74 54 82 205 10 172
35 287 86 394 47 98 54 156 27 198 -37 56 -55 60 -271 68 -472 16 -677 70
-921 242 -69 48 -133 58 -180 28z"/>
</g>
</svg>
